<svg xmlns="http://www.w3.org/2000/svg" width="34" height="34" viewBox="0 0 34 34"><defs><style>.a{fill:#acf6ff;}.b{fill:#2856f0;}</style></defs><g transform="translate(-21 -572)"><circle class="a" cx="17" cy="17" r="17" transform="translate(21 572)"/><g transform="translate(-618.382 510.891)"><path class="b" d="M650.331,81.517c.141-4.03-.277-8.2.153-12.165.563-.643,1.179.152,1.624.525.386.339.77.68,1.167,1.031,2.7-2.4,1.883-2.368,4.584-.006,2.676-2.371,1.893-2.379,4.571,0,.63-.381,1.892-2.108,2.559-1.732a.688.688,0,0,1,.393.7q0,6.925,0,13.85a3.121,3.121,0,0,1-2.479,3.126c-4.05.217-8.134,0-12.194.086-2.806-.038-3.523-2.438-3.28-4.716a.66.66,0,0,1,.7-.7C648.869,81.514,649.59,81.518,650.331,81.517Zm1.331,0c2.635,0,5.268.008,7.9-.006a.741.741,0,0,1,.845.854c-.175,1.527.133,3.428,2.094,3.222a1.821,1.821,0,0,0,1.55-1.838c-.011-4.165.03-8.332-.014-12.5-2.141,2.079-1.684,1.118-3.888-.611-2.708,2.349-1.878,2.395-4.584-.005-2.234,1.74-1.742,2.7-3.906.612Zm-2.893,1.332c-.181,1.327.253,2.763,1.926,2.769,3-.024,5.989.019,8.985-.017a4.025,4.025,0,0,1-.588-2.752Z" transform="translate(0 0)"/><path class="b" d="M740.721,198c-1.174,0-2.349,0-3.523,0a.655.655,0,0,1-.7-.682.692.692,0,0,1,.8-.634q3.427,0,6.854,0a.663.663,0,1,1,.16,1.313C743.117,198,741.919,198,740.721,198Z" transform="translate(-82.863 -118.619)"/><path class="b" d="M739.324,152.506c.686.114,2.406-.338,2.657.419a.661.661,0,0,1-.665.895c-1.32,0-2.639,0-3.959,0a.656.656,0,1,1-.065-1.311c.677-.009,1.355,0,2.032,0Z" transform="translate(-83.01 -77.518)"/></g></g></svg>