<svg xmlns="http://www.w3.org/2000/svg" width="32.049" height="27.351" viewBox="0 0 32.049 27.351"><defs><style>.a{fill:#fecf73;}</style></defs><g transform="translate(4802 14869.351)"><circle class="a" cx="12" cy="12" r="12" transform="translate(-4802 -14866)"/><g transform="translate(-5606.512 -15229.8)"><path d="M820.357,387.8a11.224,11.224,0,0,1-10.866-8.922,11.066,11.066,0,0,1,7.995-12.9,18.384,18.384,0,0,1,2.494-.368.41.41,0,0,0,.378-.253,8.317,8.317,0,0,1,6.687-4.842,8.5,8.5,0,0,1,4.668,16.118.37.37,0,0,0-.25.377,11.071,11.071,0,0,1-8.865,10.5C821.862,387.664,821.1,387.707,820.357,387.8Zm7.686-11.937a6.906,6.906,0,1,0-6.887-6.906A6.911,6.911,0,0,0,828.043,375.863Zm-12,1.618c0,.093,0,.171,0,.249a15.383,15.383,0,0,0,1.181,5.4,6.5,6.5,0,0,0,1.566,2.32,8.87,8.87,0,0,0,.744.538v-8.508Zm3.5-10.129c-.227.15-.419.258-.589.393a5.827,5.827,0,0,0-1.563,2.1,13.818,13.818,0,0,0-1.242,4.493c-.059.5-.09,1-.134,1.509h3.528Zm1.623,18.629c.227-.152.418-.262.588-.4A5.822,5.822,0,0,0,823.3,383.5a14.569,14.569,0,0,0,1.324-5.26c.021-.252.033-.5.049-.764h-3.505Zm2.94-.645c2.6-.552,5.887-5.081,5.711-7.853h-3.538A16.073,16.073,0,0,1,824.109,385.336Zm-7.5.019a16.1,16.1,0,0,1-2.187-7.875H810.94A9.371,9.371,0,0,0,816.6,385.355Zm-2.186-9.5a16.107,16.107,0,0,1,2.2-7.9,9.551,9.551,0,0,0-4.476,3.983,9.149,9.149,0,0,0-1.23,3.919Zm8.55-.006-1.791-1.793v1.806h1.755C822.956,375.861,822.978,375.847,822.969,375.85Z"/><path d="M968.131,400.458a.849.849,0,0,1-.445.818.729.729,0,0,1-.848-.087.9.9,0,0,0-.85-.166.444.444,0,0,0-.349.391c-.042.205.092.3.24.364.379.172.759.344,1.148.493a2.094,2.094,0,0,1,1.5,1.988,2.287,2.287,0,0,1-1.347,2.184.335.335,0,0,0-.234.329.785.785,0,0,1-1.558.09.326.326,0,0,0-.266-.3,4.815,4.815,0,0,1-.863-.4.793.793,0,1,1,.829-1.353,1.769,1.769,0,0,0,1.062.274.757.757,0,0,0,.652-.351.592.592,0,0,0-.293-.95c-.5-.217-1.017-.418-1.5-.671a1.7,1.7,0,0,1-.967-1.678,1.987,1.987,0,0,1,1.1-1.79.383.383,0,0,0,.241-.33.778.778,0,0,1,.784-.691.821.821,0,0,1,.789.668.459.459,0,0,0,.19.234,6.66,6.66,0,0,1,.727.478A1.442,1.442,0,0,1,968.131,400.458Z" transform="translate(-138.105 -34.104)"/></g></g></svg>