<svg xmlns="http://www.w3.org/2000/svg" width="32.245" height="24" viewBox="0 0 32.245 24"><defs><style>.a{fill:#76e7b7;}</style></defs><g transform="translate(5046 14866)"><circle class="a" cx="12" cy="12" r="12" transform="translate(-5046 -14866)"/><path d="M818.156,198.736l10.762-10.585-.035-.072h-.332q-3.5,0-6.99,0a1.376,1.376,0,0,1-1.485-1.051,1.345,1.345,0,0,1,1.182-1.645c.125-.01.252-.008.378-.008h10.328a1.408,1.408,0,0,1,1.619,1.615q0,5.2,0,10.391a1.4,1.4,0,0,1-.951,1.467,1.352,1.352,0,0,1-1.755-1.308c-.014-.64,0-1.28,0-1.921q0-2.6,0-5.2v-.4c-.135.127-.225.207-.31.292q-5.673,5.7-11.344,11.411a1.325,1.325,0,0,1-1.436.466,1.883,1.883,0,0,1-.8-.564c-1.272-1.589-2.516-3.2-3.77-4.8-.083-.107-.17-.211-.276-.342-.322.3-.635.6-.945.89q-4.15,3.929-8.3,7.859a1.348,1.348,0,0,1-1.442.363,1.283,1.283,0,0,1-.894-1.046,1.372,1.372,0,0,1,.49-1.293q1.042-.983,2.08-1.971L812,193.644a1.39,1.39,0,0,1,2.3.184q1.907,2.445,3.816,4.887c.032.041.068.079.1.118Z" transform="translate(-5847.337 -15047.673)"/></g></svg>