<svg xmlns="http://www.w3.org/2000/svg" xmlns:xlink="http://www.w3.org/1999/xlink" width="21" height="15" viewBox="0 0 21 15"><defs><style>.a{fill:#fff;stroke:#f5f5f5;stroke-miterlimit:10;stroke-width:0.5px;}.b{clip-path:url(#a);}.c{fill:#ff3131;}</style><clipPath id="a"><rect class="a" width="21" height="15" rx="2" transform="translate(-0.075)"/></clipPath></defs><g class="b" transform="translate(0.075)"><rect class="c" width="6" height="15" transform="translate(14.925)"/><rect class="c" width="6" height="15" transform="translate(-0.075)"/><path class="c" d="M4.982,2.989a.213.213,0,0,1-.36-.193L4.982,1l-1,.5L3.488,0l-.5,1.495-1-.5.36,1.8a.213.213,0,0,1-.36.193l-.322-.322a.249.249,0,0,0-.352,0L1,2.989l-1-.5.5,1L.176,3.81a.249.249,0,0,0,0,.352L1.495,5.48H2.989l.249,1.495h.5L3.986,5.48H5.48L6.8,4.162a.249.249,0,0,0,0-.352l-.322-.322.5-1-1,.5-.322-.322a.249.249,0,0,0-.352,0Z" transform="translate(6.975 3.986)"/></g></svg>