<svg xmlns="http://www.w3.org/2000/svg" width="24" height="24" viewBox="0 0 24 24"><defs><style>.a{fill:none;}.b{fill:#111;}</style></defs><rect class="a" width="24" height="24"/><g transform="translate(-4.243 12) rotate(-45)"><path class="b" d="M3,11.938A.938.938,0,0,1,3.844,11H19.033a.938.938,0,1,1,0,1.875H3.844A.938.938,0,0,1,3,11.938Z" transform="translate(0 -0.499)"/><path class="b" d="M11.938,3a.938.938,0,0,1,.938.844V19.033a.938.938,0,1,1-1.875,0V3.844A.938.938,0,0,1,11.938,3Z" transform="translate(-0.499 0)"/></g></svg>