<svg xmlns="http://www.w3.org/2000/svg" width="24" height="24" viewBox="0 0 24 24"><defs><style>.a{fill:none;}.b{fill:#393939;}</style></defs><rect class="a" width="24" height="24"/><path class="b" d="M290.1,290.387a1.3,1.3,0,0,1,.91.391c.865.866,1.735,1.728,2.6,2.6a1.258,1.258,0,0,1-.009,1.841q-1.328,1.337-2.664,2.666-4.015,4.015-8.026,8.034a1.906,1.906,0,0,1-1.2.584c-.97.109-1.937.244-2.9.375a1.166,1.166,0,0,1-1.3-1.278q.2-1.588.415-3.175a1.43,1.43,0,0,1,.444-.836q3.511-3.5,7.018-7.015,1.879-1.879,3.758-3.76A1.348,1.348,0,0,1,290.1,290.387ZM279.182,305.2c.788-.1,1.548-.2,2.309-.3a.509.509,0,0,0,.313-.17q3.761-3.766,7.527-7.527a.681.681,0,0,1,.141-.091l-2.2-2.195a.835.835,0,0,1-.085.114q-1.769,1.772-3.541,3.542-2.021,2.021-4.04,4.045a.449.449,0,0,0-.117.231c-.057.355-.1.711-.148,1.067C279.29,304.342,279.238,304.76,279.182,305.2Zm10.913-13.015-1.583,1.586,2.1,2.105L292.2,294.3Z" transform="translate(-273.643 -286.533)"/></svg>