<svg xmlns="http://www.w3.org/2000/svg" width="24" height="24" viewBox="0 0 24 24"><defs><style>.a{fill:none;}.b{fill:#393939;}</style></defs><rect class="a" width="24" height="24"/><g transform="translate(-243.08 -387.339)"><path class="b" d="M255.08,410.339a11,11,0,1,1,11-11A11.013,11.013,0,0,1,255.08,410.339Zm0-20a9,9,0,1,0,9,9A9.01,9.01,0,0,0,255.08,390.339Z"/><path class="b" d="M255.08,400.339a1,1,0,0,1-1-1v-4a1,1,0,1,1,2,0v4A1,1,0,0,1,255.08,400.339Z" transform="translate(510.16 798.677) rotate(180)"/><circle class="b" cx="1" cy="1" r="1" transform="translate(256.08 396.339) rotate(180)"/></g></svg>