<svg xmlns="http://www.w3.org/2000/svg" width="71" height="71" viewBox="0 0 71 71"><defs><style>.a{fill:none;}.b{fill:#b3bcdb;}</style></defs><g transform="translate(0.044)"><rect class="a" width="71" height="71" transform="translate(-0.044)"/><g transform="translate(19.717 12.551)"><path class="b" d="M105.006,238.419H90.351c-.069-1.165-.071-2.3-.216-3.42a11.611,11.611,0,0,0-3.279-6.816,17.062,17.062,0,0,1-4.777-8.441,15.917,15.917,0,1,1,31.174-6.444,15.341,15.341,0,0,1-3.893,13.829,15.836,15.836,0,0,0-3.614,5.331,12.768,12.768,0,0,0-.74,4.4C105.011,237.363,105.006,237.871,105.006,238.419Z" transform="translate(-81.717 -200.479)"/><path class="b" d="M118.341,351.436h12.153c0,1.253.046,2.476-.016,3.693-.04.79-.543,1.152-1.436,1.161-1.584.016-3.169.005-4.754.005-1.451,0-2.9,0-4.352,0-1.306,0-1.7-.408-1.7-1.736,0-1,.013-2.008.025-3.011C118.259,351.512,118.31,351.477,118.341,351.436Z" transform="translate(-108.446 -310.972)"/><path class="b" d="M128.612,378.891h6.667c-.014,1.069-1.637,2.317-3.048,2.4A3.523,3.523,0,0,1,128.612,378.891Z" transform="translate(-116.042 -331.068)"/></g></g></svg>