<svg xmlns="http://www.w3.org/2000/svg" width="13.866" height="13" viewBox="0 0 13.866 13"><defs><style>.a{fill:#11be74;}.b{opacity:0.458;}.c{fill:#20eb95;}</style></defs><g transform="translate(-115.265 -418)"><g transform="translate(115.265 418)"><path class="a" d="M3.132,14.074a.46.46,0,0,1-.647-.513l.719-4.1L.152,6.553A.482.482,0,0,1,.4,5.73l4.244-.6,1.893-3.75a.445.445,0,0,1,.8,0L9.23,5.127l4.244.6a.482.482,0,0,1,.245.823L10.667,9.462l.719,4.1a.46.46,0,0,1-.647.513l-3.8-1.955-3.8,1.955Z" transform="translate(-0.003 -1.123)"/></g><g class="b" transform="translate(116.767 419.409)"><path class="c" d="M2.454,11.267a.36.36,0,0,1-.507-.4l.563-3.211L.119,5.377a.377.377,0,0,1,.192-.645l3.325-.472L5.119,1.322a.349.349,0,0,1,.629,0L7.231,4.259l3.325.472a.378.378,0,0,1,.192.645L8.356,7.655l.563,3.211a.36.36,0,0,1-.507.4L5.432,9.736,2.453,11.267Z" transform="translate(-0.003 -1.123)"/></g></g></svg>